<svg width="28" height="28" viewBox="0 0 28 28" fill="none" xmlns="http://www.w3.org/2000/svg">
<path d="M14 17.4709C13.8444 17.4709 13.6935 17.4417 13.5473 17.3834C13.4011 17.3251 13.2798 17.2473 13.1833 17.1501L7.81665 11.7834C7.60276 11.5695 7.49582 11.2973 7.49582 10.9667C7.49582 10.6362 7.60276 10.3639 7.81665 10.1501C8.03054 9.93617 8.30276 9.82922 8.63332 9.82922C8.96387 9.82922 9.2361 9.93617 9.44999 10.1501L14 14.7001L18.55 10.1501C18.7639 9.93617 19.0361 9.82922 19.3667 9.82922C19.6972 9.82922 19.9694 9.93617 20.1833 10.1501C20.3972 10.3639 20.5042 10.6362 20.5042 10.9667C20.5042 11.2973 20.3972 11.5695 20.1833 11.7834L14.8167 17.1501C14.7 17.2667 14.5736 17.3496 14.4375 17.3986C14.3014 17.4476 14.1555 17.4717 14 17.4709Z" fill="#040404"/>
</svg>
