<svg width="72" height="73" viewBox="0 0 72 73" fill="none" xmlns="http://www.w3.org/2000/svg">
<path d="M35.8859 6.69165C19.5103 6.69165 6.16608 20.0358 6.16608 36.4115C6.16608 52.7871 19.5103 66.1313 35.8859 66.1313C52.2615 66.1313 65.6057 52.7871 65.6057 36.4115C65.6057 20.0358 52.2615 6.69165 35.8859 6.69165ZM50.092 29.5759L33.2408 46.427C32.8247 46.8431 32.2601 47.0809 31.6657 47.0809C31.0713 47.0809 30.5066 46.8431 30.0905 46.427L21.6798 38.0163C20.8179 37.1545 20.8179 35.7279 21.6798 34.866C22.5417 34.0042 23.9682 34.0042 24.8301 34.866L31.6657 41.7016L46.9417 26.4256C47.8035 25.5637 49.2301 25.5637 50.092 26.4256C50.9538 27.2875 50.9538 28.6843 50.092 29.5759Z" fill="#23A26D"/>
</svg>
